<?xml version="1.0" standalone="no"?>
<!DOCTYPE svg PUBLIC "-//W3C//DTD SVG 20010904//EN"
 "http://www.w3.org/TR/2001/REC-SVG-20010904/DTD/svg10.dtd">
<svg version="1.0" xmlns="http://www.w3.org/2000/svg"
 width="700.000000pt" height="700.000000pt" viewBox="0 0 700.000000 700.000000"
 preserveAspectRatio="xMidYMid meet">
<metadata>
Created by potrace 1.14, written by Peter Selinger 2001-2017
</metadata>
<g transform="translate(0.000000,700.000000) scale(0.100000,-0.100000)"
fill="#000000" stroke="none">
<path d="M5520 6990 c-25 -4 -58 -10 -75 -13 -92 -15 -245 -67 -339 -114 -256
-128 -447 -318 -598 -597 -20 -37 -77 -192 -92 -254 -17 -64 -21 -85 -35 -205
-13 -112 0 -316 25 -399 3 -9 7 -27 9 -40 11 -54 60 -189 97 -263 128 -255
333 -461 588 -590 75 -38 214 -90 264 -99 14 -3 34 -7 44 -10 10 -4 64 -12
119 -19 625 -81 1224 306 1413 913 44 139 58 252 55 420 -3 162 -24 276 -76
419 -155 424 -525 742 -974 836 -87 19 -349 28 -425 15z"/>
<path d="M2367 6564 c-1 -1 -45 -4 -97 -8 -378 -24 -747 -163 -1055 -397 -320
-243 -559 -580 -682 -959 -28 -87 -50 -170 -58 -220 -3 -19 -10 -60 -15 -90
-5 -30 -12 -93 -16 -140 -9 -115 -9 -2371 0 -2490 60 -796 591 -1474 1351
-1725 135 -45 313 -80 464 -92 101 -8 2337 -8 2471 0 450 27 911 233 1233 551
232 229 394 483 492 771 29 86 54 174 61 215 2 14 8 45 14 70 29 142 32 224
32 870 1 394 -3 618 -10 642 -23 82 -94 141 -186 153 -85 12 -165 -30 -213
-113 l-28 -47 -1 -620 c0 -341 -4 -651 -8 -690 -45 -452 -312 -882 -696 -1127
-211 -135 -448 -215 -690 -235 -105 -9 -2376 -8 -2479 1 -271 23 -571 145
-796 324 -300 238 -510 599 -561 962 -17 121 -19 291 -18 1350 0 1120 4 1292
26 1350 5 14 9 26 8 28 -11 18 58 235 112 349 225 477 688 808 1218 869 36 4
344 8 685 8 l620 2 48 23 c119 58 158 191 90 309 -28 50 -82 88 -138 98 -31 6
-1171 13 -1178 8z"/>
</g>
</svg>
